<svg width="39" height="36" viewBox="0 0 39 36" fill="none" xmlns="http://www.w3.org/2000/svg">
<g clip-path="url(#clip0_146_260)">
<path d="M0 18C0 8.35 7.63 0.720001 17.33 0.720001C22.37 0.720001 26.74 2.78 29.67 5.81C30.29 6.48 30.63 7.44 30.63 8.26C30.63 10.23 29 11.81 27.03 11.81C26.07 11.81 25.11 11.28 24.15 10.42C22.37 8.79 20.12 7.68 17.33 7.68C11.81 7.68 7.44 12.24 7.44 18C7.44 23.76 11.81 28.32 17.33 28.32C20.11 28.32 22.37 27.22 24.15 25.58C25.11 24.72 26.07 24.19 27.03 24.19C29 24.19 30.63 25.77 30.63 27.74C30.63 28.56 30.29 29.52 29.67 30.19C26.74 33.21 22.37 35.28 17.33 35.28C7.63 35.28 0 27.65 0 18Z" fill="#F82F2A"/>
<path d="M35.87 32.7C37.5268 32.7 38.87 31.3569 38.87 29.7C38.87 28.0431 37.5268 26.7 35.87 26.7C34.2131 26.7 32.87 28.0431 32.87 29.7C32.87 31.3569 34.2131 32.7 35.87 32.7Z" fill="#F82F2A"/>
</g>
<defs>
<clipPath id="clip0_146_260">
<rect width="38.87" height="34.56" fill="white" transform="translate(0 0.720001)"/>
</clipPath>
</defs>
</svg>
